<?xml version="1.0" standalone="no"?>
<!DOCTYPE svg PUBLIC "-//W3C//DTD SVG 20010904//EN"
 "http://www.w3.org/TR/2001/REC-SVG-20010904/DTD/svg10.dtd">
<svg version="1.0" xmlns="http://www.w3.org/2000/svg"
 width="989.000000pt" height="1280.000000pt" viewBox="0 0 989.000000 1280.000000"
 preserveAspectRatio="xMidYMid meet">
<metadata>
Created by potrace 1.15, written by Peter Selinger 2001-2017
</metadata>
<g transform="translate(0.000000,1280.000000) scale(0.100000,-0.100000)"
fill="#000000" stroke="none">
<path d="M4590 12619 c-14 -4 -43 -8 -65 -8 -55 -2 -188 -36 -253 -66 -145
-67 -364 -240 -435 -345 -17 -25 -52 -68 -79 -97 -27 -29 -57 -72 -67 -95 -10
-24 -25 -49 -34 -56 -9 -8 -31 -36 -49 -64 -27 -43 -32 -59 -30 -103 2 -41 -5
-67 -29 -119 -23 -48 -31 -81 -31 -119 0 -37 -8 -70 -29 -113 -28 -60 -40
-142 -19 -129 6 3 10 1 10 -5 0 -6 5 -8 11 -4 7 4 9 0 6 -12 -3 -11 -8 -29
-12 -41 -3 -13 -11 -23 -17 -23 -5 0 -8 -6 -5 -13 3 -8 1 -20 -3 -28 -5 -8 -5
-18 1 -26 7 -8 7 -18 -1 -32 -9 -17 -8 -21 4 -21 9 0 20 9 26 20 6 11 20 20
31 20 16 0 19 -4 14 -20 -4 -12 -1 -27 5 -35 15 -18 -10 -68 -44 -90 -41 -27
-73 -118 -96 -278 -6 -37 -19 -86 -31 -109 -21 -41 -67 -217 -89 -337 -13 -74
-14 -338 -1 -390 5 -20 19 -77 31 -128 l22 -92 -26 -45 c-28 -48 -32 -61 -16
-51 13 8 13 8 -9 -50 -32 -86 -34 -91 -23 -77 7 10 11 -2 14 -40 4 -51 41
-128 62 -128 5 0 2 8 -6 18 -29 31 -48 94 -47 151 l1 56 13 -61 c19 -87 105
-248 122 -230 3 3 0 12 -6 20 -8 10 -9 16 -1 21 6 4 9 1 8 -7 -2 -7 5 -13 14
-13 9 0 20 -4 25 -9 5 -6 2 -6 -7 0 -8 4 -4 -6 10 -23 30 -38 56 -53 40 -24
-5 11 -15 22 -22 24 -10 4 -10 6 1 6 7 1 -10 26 -38 57 -28 31 -49 60 -45 65
3 5 2 9 -3 8 -23 -4 -33 5 -47 48 -20 58 -20 110 0 143 8 14 13 18 10 9 -13
-45 -17 -109 -7 -126 8 -14 10 -8 11 33 0 34 4 51 13 51 9 0 11 -18 9 -67 -3
-54 -1 -68 12 -73 13 -5 14 -2 6 19 -13 33 -13 97 0 89 5 -3 14 -23 20 -45 15
-54 40 -113 46 -107 3 3 0 15 -6 27 -6 12 -10 24 -7 26 4 5 33 -39 70 -106 22
-40 42 -64 32 -38 -8 21 17 18 43 -5 10 -9 22 -14 27 -10 4 5 5 3 2 -3 -4 -6
5 -22 18 -34 31 -29 37 -110 8 -110 -28 0 -103 -41 -118 -64 -7 -11 -24 -55
-36 -97 -21 -73 -22 -79 -6 -125 15 -45 15 -50 0 -64 -14 -14 -14 -13 -4 10
11 24 11 24 -3 6 -9 -11 -16 -26 -16 -34 0 -7 -4 -11 -8 -8 -4 2 -8 -7 -7 -21
0 -23 -9 -30 -80 -58 -108 -43 -178 -79 -250 -130 -57 -40 -65 -42 -150 -49
-83 -6 -92 -9 -109 -34 -38 -52 -122 -128 -210 -187 -49 -33 -94 -68 -100 -77
-15 -24 17 -114 77 -213 42 -70 48 -85 43 -120 -4 -37 6 -160 20 -227 3 -16
12 -28 20 -28 23 0 17 -38 -36 -216 -123 -411 -149 -595 -152 -1071 -1 -187 2
-216 22 -288 25 -90 57 -158 95 -203 14 -17 34 -56 45 -88 27 -76 61 -119 124
-155 l53 -29 -17 -98 c-10 -53 -32 -135 -50 -182 -110 -296 -119 -332 -151
-580 -34 -272 -37 -280 -197 -721 -78 -212 -103 -333 -104 -498 0 -142 11
-200 47 -233 l24 -23 -79 -133 c-110 -183 -193 -335 -224 -409 -39 -92 -35
-128 21 -215 26 -40 55 -100 64 -134 31 -113 66 -160 147 -203 20 -11 22 -19
22 -94 0 -45 4 -98 10 -117 19 -66 23 -190 10 -288 -9 -73 -10 -114 -2 -167 6
-38 14 -139 18 -223 4 -84 11 -155 16 -158 4 -3 8 0 8 5 0 6 8 11 18 11 10 0
27 7 39 15 20 14 22 13 28 -16 4 -18 10 -27 14 -21 3 5 15 11 25 13 10 2 28
17 40 32 18 24 21 43 21 118 0 49 1 89 2 89 9 0 56 -111 66 -157 11 -46 11
-62 1 -83 -25 -51 14 -187 110 -377 51 -103 159 -368 176 -433 7 -25 25 -80
42 -122 l29 -78 1939 0 1939 0 26 43 c28 50 33 109 11 161 -23 56 -28 108 -16
197 14 115 35 191 65 239 31 48 31 64 4 126 -21 46 -22 57 -14 229 4 99 10
254 14 345 l6 165 116 60 c64 33 124 66 133 74 24 20 29 72 16 148 -11 62 -10
72 9 116 28 65 27 139 -3 282 -31 143 -96 338 -187 558 -65 157 -114 297 -234
667 -88 276 -168 419 -327 588 -208 223 -194 203 -207 285 -7 40 -18 97 -26
126 -11 45 -11 70 1 178 10 86 12 135 5 152 -26 70 -23 83 58 268 76 173 160
388 197 506 10 31 21 57 25 57 3 0 9 -14 13 -31 9 -45 52 -127 93 -177 48 -58
101 -92 159 -100 l47 -7 28 -107 c15 -59 33 -117 40 -129 23 -45 60 -166 74
-251 22 -124 57 -238 106 -343 71 -153 226 -547 253 -641 28 -99 40 -178 56
-369 15 -164 55 -449 76 -528 19 -74 31 -98 100 -203 78 -120 128 -154 226
-154 l38 0 -6 -162 c-6 -161 6 -342 24 -360 6 -6 2 -34 -10 -71 -16 -49 -22
-110 -29 -292 -5 -126 -12 -237 -15 -247 -3 -10 0 -71 6 -135 8 -87 8 -139 0
-198 -31 -221 -22 -315 35 -372 28 -28 40 -33 78 -33 40 0 47 4 65 33 34 55
47 134 45 262 -2 118 25 306 47 329 14 15 97 -22 125 -55 13 -17 45 -72 70
-124 38 -79 55 -102 111 -152 102 -89 122 -124 124 -213 5 -165 5 -163 -51
-227 -75 -85 -101 -162 -64 -193 10 -8 13 -21 9 -33 -6 -20 -6 -20 23 1 16 12
36 28 43 37 56 68 130 90 130 39 0 -37 19 -76 39 -81 11 -3 21 -13 24 -24 8
-31 23 -22 40 24 57 160 76 244 82 367 4 102 3 130 -10 154 -19 36 -39 211
-33 291 3 33 2 103 -2 155 -7 89 -13 109 -83 275 -141 336 -221 570 -205 599
6 10 8 32 5 49 -3 18 -20 114 -38 213 -31 181 -31 182 -11 202 11 11 30 50 42
87 26 79 24 154 -9 282 -11 43 -29 127 -41 188 -12 60 -62 233 -111 385 -106
323 -140 447 -169 630 -63 398 -74 441 -245 940 -50 146 -70 219 -79 291 l-7
47 45 26 c63 37 112 99 135 170 49 150 72 373 52 503 -32 202 -150 627 -307
1107 -100 304 -121 385 -149 556 -9 58 -21 121 -26 141 -24 95 -26 159 -7 216
27 85 24 136 -13 189 l-31 45 7 103 c7 102 7 103 -16 109 -39 11 -232 8 -291
-4 -55 -11 -57 -11 -115 25 -82 50 -162 81 -335 127 -148 39 -498 158 -498
169 0 3 21 12 46 19 46 14 104 54 104 73 0 5 -12 25 -27 45 -34 44 -26 58 54
98 94 47 92 43 87 148 -3 51 -19 190 -36 310 l-32 218 22 21 c24 25 27 21 37
-54 3 -27 10 -48 14 -48 14 0 96 57 121 84 24 26 25 34 26 149 0 103 4 129 22
167 24 52 78 112 120 134 16 8 51 41 77 73 27 32 52 60 55 63 26 25 49 121 50
203 0 57 16 103 48 140 18 20 21 100 7 205 -7 56 -11 65 -38 79 -17 8 -106 89
-199 179 -206 202 -317 277 -467 318 -73 20 -170 25 -254 12 l-58 -8 6 28 c5
24 4 26 -5 12 -15 -25 -40 -23 -33 1 3 13 -2 24 -16 33 -12 7 -21 17 -21 23 0
5 -5 27 -11 48 -7 26 -15 37 -29 37 -16 0 -20 7 -20 38 0 29 -20 73 -87 191
-106 186 -177 266 -348 394 -128 96 -234 154 -330 182 -33 10 -98 30 -145 46
-47 15 -119 30 -160 33 -136 11 -265 13 -290 5z m-1060 -1232 c0 -23 -17 -47
-32 -47 -10 0 -11 54 -1 63 14 15 33 6 33 -16z m-53 -44 c-3 -10 -5 -4 -5 12
0 17 2 24 5 18 2 -7 2 -21 0 -30z m2569 -1050 c21 -120 14 -137 -14 -36 -22
79 -32 226 -11 158 5 -16 16 -71 25 -122z m-16 -161 c17 -68 19 -97 13 -160
-4 -42 -9 -68 -10 -57 -2 11 -13 67 -23 124 -23 117 -24 129 -11 116 4 -6 14
-46 21 -90 8 -43 15 -74 17 -68 4 10 -16 130 -33 200 -4 15 -4 26 -1 23 3 -3
15 -42 27 -88z m-2697 -517 c-3 -9 -8 -14 -10 -11 -3 3 -2 9 2 15 9 16 15 13
8 -4z m12 -59 c-10 -14 -21 -23 -26 -20 -5 3 -10 -19 -11 -48 -1 -46 -2 -48
-5 -14 -5 46 4 89 16 81 5 -2 12 7 15 22 5 18 10 23 17 16 8 -8 6 -19 -6 -37z
m90 -67 c9 -17 15 -38 13 -47 -2 -10 -11 3 -20 31 -19 54 -16 61 7 16z m2487
-33 c10 -11 18 -23 18 -28 0 -4 7 -8 15 -8 8 0 15 -4 15 -10 0 -5 -6 -10 -13
-10 -14 0 -47 35 -47 50 0 6 -4 10 -10 10 -5 0 -10 10 -9 23 0 14 3 17 6 7 3
-8 14 -23 25 -34z m-2284 -62 c-3 -14 -5 -12 -10 9 -3 19 -2 25 4 19 6 -6 8
-18 6 -28z m2352 -16 c-1 -75 41 -251 76 -321 14 -27 23 -52 20 -55 -3 -3 -6
0 -6 7 0 7 -17 19 -37 28 -43 17 -53 28 -53 61 0 13 -7 30 -15 39 -10 9 -13
23 -9 35 3 12 2 18 -3 15 -6 -4 -16 6 -24 20 -11 21 -11 27 -1 31 10 3 10 7 1
18 -6 7 -14 40 -18 73 l-7 60 28 -1 c16 -1 31 2 35 5 10 11 13 8 13 -15z
m-2593 -109 c-2 -23 -1 -23 -18 -2 -10 11 -10 14 -1 9 6 -4 12 -3 12 1 0 5 -6
15 -12 23 -11 12 -10 12 4 1 9 -7 16 -21 15 -32z m2458 -129 c10 -11 16 -20
13 -20 -3 0 -13 9 -23 20 -10 11 -16 20 -13 20 3 0 13 -9 23 -20z m-1480 -10
c-16 -4 -41 -8 -55 -8 l-25 0 25 8 c14 4 39 8 55 8 l30 0 -30 -8z m-55 -60
c-8 -5 -24 -10 -35 -10 -15 0 -17 -2 -7 -9 10 -6 6 -11 -17 -19 l-31 -11 16
24 c16 24 32 32 69 34 16 1 17 -1 5 -9z"/>
<path d="M3251 9494 c0 -11 3 -14 6 -6 3 7 2 16 -1 19 -3 4 -6 -2 -5 -13z"/>
<path d="M3410 9321 c0 -6 4 -13 10 -16 6 -3 7 1 4 9 -7 18 -14 21 -14 7z"/>
</g>
</svg>
