<?xml version="1.0" standalone="no"?>
<!DOCTYPE svg PUBLIC "-//W3C//DTD SVG 20010904//EN"
 "http://www.w3.org/TR/2001/REC-SVG-20010904/DTD/svg10.dtd">
<svg version="1.0" xmlns="http://www.w3.org/2000/svg"
 width="1280.000000pt" height="929.000000pt" viewBox="0 0 1280.000000 929.000000"
 preserveAspectRatio="xMidYMid meet">
<metadata>
Created by potrace 1.15, written by Peter Selinger 2001-2017
</metadata>
<g transform="translate(0.000000,929.000000) scale(0.100000,-0.100000)"
fill="#4B4B4B" stroke="none">
<path d="M2664 9276 c-14 -35 310 -629 438 -805 93 -126 503 -593 605 -688
303 -281 552 -468 910 -683 l122 -73 -23 -46 c-95 -188 -158 -452 -206 -857
-28 -246 -64 -383 -141 -551 -127 -274 -126 -315 15 -598 89 -177 131 -240
266 -390 44 -49 80 -92 80 -96 0 -3 -33 -16 -72 -28 -265 -78 -544 -73 -790
15 -184 66 -383 183 -554 326 -120 101 -118 98 -106 150 18 82 273 1163 278
1181 4 11 15 17 34 17 18 0 34 8 44 21 l14 21 130 -36 c71 -20 145 -36 163
-36 19 0 42 -7 52 -14 10 -8 26 -12 36 -9 9 2 34 -5 53 -17 20 -12 55 -22 78
-23 l41 -2 35 85 c58 143 104 277 130 376 28 112 64 323 67 396 l2 51 -50 13
c-27 8 -64 14 -82 14 -17 0 -35 5 -38 11 -4 5 -17 9 -28 8 -12 -2 -36 5 -53
14 -17 9 -66 25 -108 37 -42 11 -111 29 -153 41 -183 48 -631 169 -663 179
-19 5 -53 10 -76 10 -26 0 -47 6 -55 16 -7 8 -21 13 -31 10 -11 -2 -42 6 -71
19 -29 13 -65 25 -82 27 -27 3 -33 -2 -57 -47 -75 -141 -218 -682 -218 -826
l0 -37 70 -17 c38 -9 76 -15 84 -12 8 3 20 -1 27 -9 6 -8 24 -13 39 -12 16 1
36 -4 45 -12 9 -7 87 -32 173 -55 152 -40 157 -41 160 -68 2 -18 12 -32 28
-39 14 -7 23 -16 21 -22 -2 -6 -86 -287 -187 -624 l-184 -613 -67 -35 c-144
-76 -259 -197 -333 -349 -51 -104 -66 -161 -66 -242 0 -117 48 -228 149 -347
33 -38 57 -74 55 -80 -2 -6 -35 -146 -74 -311 -38 -165 -72 -310 -75 -323 -4
-18 -10 -21 -29 -16 -41 10 -76 -48 -43 -73 19 -16 129 -51 227 -73 69 -15 96
-18 111 -9 27 14 22 60 -8 74 -13 5 -23 12 -23 16 0 3 24 86 54 185 30 98 64
212 75 251 l22 73 102 -83 c234 -189 453 -296 734 -360 87 -19 125 -21 338
-21 211 1 255 4 361 26 l121 24 6 -106 c8 -122 32 -228 80 -355 49 -129 144
-315 223 -436 47 -71 67 -112 66 -131 -3 -33 -51 -147 -127 -298 -121 -240
-161 -386 -153 -549 4 -75 12 -113 36 -174 55 -140 196 -329 330 -439 l44 -36
-65 -85 c-152 -199 -236 -407 -181 -448 11 -8 24 -23 30 -34 10 -18 37 -29
104 -41 51 -9 329 164 550 341 52 42 104 80 116 85 11 5 160 13 330 19 340 12
371 15 524 38 199 30 294 18 910 -111 119 -25 245 -48 282 -52 36 -4 71 -10
78 -14 8 -5 -1 -37 -34 -113 -87 -199 -92 -273 -22 -302 19 -8 37 -19 41 -25
3 -5 18 -10 32 -10 15 0 41 -5 59 -12 28 -10 39 -8 95 19 166 78 394 255 562
435 83 89 115 116 172 145 101 51 179 110 266 199 97 101 151 184 270 419 141
280 209 504 213 700 2 91 4 100 21 103 11 2 149 50 306 107 157 57 298 107
312 111 58 14 56 29 -35 229 -84 185 -113 264 -101 276 6 6 111 52 234 103
287 119 409 176 409 191 0 19 -57 216 -134 465 -97 310 -92 285 -53 297 82 27
503 178 600 215 103 39 107 42 107 70 0 17 -13 69 -30 116 -62 181 -258 837
-252 844 4 4 61 21 127 38 247 64 447 127 1075 337 615 205 811 276 854 308
20 15 20 16 -3 88 -51 160 -154 383 -625 1341 -102 208 -186 383 -186 388 0
60 -529 -233 -1180 -653 -1530 -989 -1475 -953 -1478 -979 -2 -16 10 -43 34
-75 63 -87 936 -1398 965 -1449 l28 -50 -142 -52 c-274 -101 -579 -222 -593
-236 -20 -20 -32 12 237 -640 38 -92 69 -173 69 -180 0 -7 -107 -68 -238 -134
-215 -110 -237 -124 -234 -145 1 -13 49 -121 106 -239 129 -270 128 -266 113
-278 -38 -31 -323 -160 -332 -151 -3 3 -21 95 -40 205 -43 245 -39 225 -140
644 -187 770 -221 929 -310 1455 -72 423 -108 680 -145 1025 -72 677 -90 760
-243 1145 -31 77 -55 141 -54 142 2 1 37 9 80 18 229 47 668 190 909 296 294
129 468 226 763 426 238 162 341 248 570 478 202 202 285 299 285 331 0 24
-37 25 -285 10 -137 -8 -338 -20 -445 -26 -150 -8 -235 -19 -369 -46 -380 -76
-739 -180 -1006 -291 -124 -53 -433 -203 -533 -259 -199 -114 -440 -267 -505
-321 -16 -12 -37 -23 -47 -23 -9 0 -70 22 -133 50 -244 104 -478 173 -728 212
-125 19 -182 22 -434 22 -250 0 -310 -3 -435 -22 -252 -39 -412 -81 -663 -173
l-162 -59 -20 27 c-65 91 -429 476 -558 592 -270 239 -457 381 -787 591 -302
193 -389 240 -660 358 -390 169 -550 220 -566 178z"/>
<path d="M1148 3660 c-215 -114 -147 -553 99 -642 30 -11 33 -16 33 -54 0 -42
0 -42 -77 -87 -117 -66 -458 -247 -467 -247 -11 0 -296 223 -296 231 0 4 16
17 35 29 42 26 44 38 7 71 -71 66 -254 199 -272 199 -20 0 -192 -109 -205
-130 -10 -16 6 -31 146 -140 93 -73 136 -100 156 -100 24 0 57 -31 212 -196
101 -108 195 -200 208 -205 55 -21 93 -10 223 61 70 39 129 70 131 70 2 0 5
-61 7 -136 1 -74 9 -197 17 -272 8 -75 20 -191 27 -257 l11 -120 -101 -390
-101 -390 -10 -321 c-16 -461 -15 -549 5 -580 36 -54 105 -68 162 -34 56 34
58 52 70 447 11 344 12 364 32 391 12 16 34 76 49 135 15 58 29 109 33 112 3
3 8 -47 12 -112 4 -65 12 -136 18 -158 7 -29 75 -121 247 -335 130 -162 257
-316 282 -342 42 -44 49 -48 93 -48 41 0 53 5 82 34 29 29 34 41 34 83 0 49 0
49 -230 335 -214 266 -230 289 -230 326 0 22 -12 183 -26 358 -15 195 -23 340
-18 374 3 30 7 154 9 275 1 163 9 278 28 445 29 247 33 332 16 412 -17 84 -51
133 -109 160 -49 23 -50 24 -50 68 0 39 5 51 34 79 191 185 26 623 -233 621
-35 -1 -70 -8 -93 -20z"/>
</g>
</svg>
